<svg width="50" height="50" viewBox="0 0 50 50" fill="none" xmlns="http://www.w3.org/2000/svg">
<rect width="50" height="50" rx="19" fill="#4DADF7"/>
<path d="M30.5714 18.4286H31.4286C31.5893 18.4286 31.7143 18.3036 31.7143 18.1429V17.5714C31.7143 17.4107 31.5893 17.2857 31.4286 17.2857H18.2857C18.125 17.2857 18 17.4107 18 17.5714V18.1429C18 18.3036 18.125 18.4286 18.2857 18.4286H19.1429C19.1429 21.7321 20.7232 24.125 22.4732 25.2857C20.7232 26.4464 19.1429 28.8393 19.1429 32.1429H18.2857C18.125 32.1429 18 32.2679 18 32.4286V33C18 33.1607 18.125 33.2857 18.2857 33.2857H31.4286C31.5893 33.2857 31.7143 33.1607 31.7143 33V32.4286C31.7143 32.2679 31.5893 32.1429 31.4286 32.1429H30.5714C30.5714 28.8393 28.9911 26.4464 27.2411 25.2857C28.9911 24.125 30.5714 21.7321 30.5714 18.4286ZM29.4286 18.4286C29.4286 19.7321 29.1339 20.8839 28.6696 21.8571H21.0446C20.5804 20.8839 20.2857 19.7321 20.2857 18.4286H29.4286ZM28.9196 29.2857H20.7946C21.4554 27.5625 22.6429 26.3393 23.8304 25.8571H25.8839C27.0714 26.3393 28.2589 27.5625 28.9196 29.2857Z" fill="white"/>
</svg>
